<svg id="Layer_1" data-name="Layer 1" xmlns="http://www.w3.org/2000/svg" viewBox="0 0 223.61 223.1"><defs><style>.cls-1{fill:#150f10;}.cls-2{fill:#211c1d;}.cls-3{fill:#24171a;}.cls-4{fill:#7f7e7f;}.cls-5{fill:#373334;}.cls-6{fill:#010101;}.cls-7{fill:#eff0f0;}.cls-8{fill:#89cdbc;}.cls-9{fill:#303534;}.cls-10{fill:#0d0306;}.cls-11{fill:#222726;}.cls-12{fill:#292425;}.cls-13{fill:#f0f1f1;}.cls-14{fill:#f7f8f8;}.cls-15{fill:#babcbe;}.cls-16{fill:#9f9fa0;}.cls-17{fill:#979797;}.cls-18{fill:#170006;}.cls-19{fill:#1e0e13;}.cls-20{fill:#201719;}.cls-21{fill:#91dbc9;}.cls-22{fill:#020101;}.cls-23{fill:#08a78d;}.cls-24{fill:#cde6dd;}.cls-25{fill:#1e1014;}.cls-26{fill:#1e1316;}.cls-27{fill:#08a98e;}.cls-28{fill:#f0f0f0;}.cls-29{fill:#186557;}.cls-30{fill:#06ad91;}.cls-31{fill:#1d0c11;}.cls-32{fill:#186859;}.cls-33{fill:#130000;}.cls-34{fill:#185f52;}.cls-35{fill:#1eaf96;}.cls-36{fill:#1c1114;}.cls-37{fill:#1d0f13;}.cls-38{fill:#1e0f13;}.cls-39{fill:#1d1114;}.cls-40{fill:#1c0f12;}.cls-41{fill:#1c0e12;}</style></defs><title>quilt5</title><path class="cls-1" d="M203,226q-98.88,0-197.75.1c-3.6,0-4.35-.74-4.34-4.34Q1.13,123.4,1,25a1.23,1.23,0,0,1,1.67.54c1.22,2.52.77,5.23.77,7.86q0,80.06,0,160.12A59.37,59.37,0,0,0,3.68,201a5.76,5.76,0,0,1,.21,1.81c-.83,5.45-.24,11-.41,16.43-.09,2.87,1.21,4.39,4.16,4.31,5.48-.15,11,.4,16.46-.38a5.69,5.69,0,0,1,1.85.16,51.12,51.12,0,0,0,7.49.22q80.45,0,160.9,0c2.63,0,5.35-.46,7.88.76A1.72,1.72,0,0,1,203,226Z"/><path class="cls-2" d="M202,1c7.26,0,14.52.07,21.77-.05,1.86,0,2.31.42,2.28,2.28C226,10.5,226,17.76,226,25a1.48,1.48,0,0,1-1.45.37,2,2,0,0,1-1-1.15c0-.26-.07-.53-.11-.79s.05-.53.08-.79c.15-4.93-.06-9.87.1-14.81.1-3.1-1-4.81-4.25-4.37-4.43.6-9.13-1.51-13.3,1.37-1.18,6.09.56,12.34-1.13,18.38a2.67,2.67,0,0,1-1.21,1.2,2.52,2.52,0,0,1-1.68-.17,2.6,2.6,0,0,1-.63-1.53c.35-4.39.11-8.79.19-13.19,0-1.87,0-3.64-2.19-4.41a43.19,43.19,0,0,0-7.49-.29q-78.61,0-157.23,0c-3.11,0-6.36.54-9.23-1.35a1.24,1.24,0,0,1-.22-1.74,28.25,28.25,0,0,1,5.48-.18q83,0,165.91,0C198.43,1.5,200.3,2,202,1Z"/><path class="cls-1" d="M202,1c-1.54,1.47-3.47.88-5.24.88q-85.84,0-171.67,0-.44-.26-.34-.57T25,1Z"/><path class="cls-1" d="M224.85,25.07,226,25V202a1.81,1.81,0,0,1-1.68-.83c-1-2-.76-4.22-.76-6.37q0-81.54,0-163.08C223.59,29.47,223.08,27,224.85,25.07Z"/><path class="cls-3" d="M25,1a5.89,5.89,0,0,0,.09.9q0,.63.07,1.27l-.74.35a5.25,5.25,0,0,1-1.62,0c-6.76-.11-13.53-.21-20.3.08A2.75,2.75,0,0,1,1,3C.63,1.29,1.29.93,3,1,10.36,1.09,17.69,1,25,1Z"/><path class="cls-3" d="M1,3h.89c2,1.61,1.48,3.91,1.52,6,.1,4.48,0,9,.06,13.44a7.75,7.75,0,0,1-.1,1.68,1.21,1.21,0,0,1-1.24.9L1,25Z"/><path class="cls-1" d="M225.1,202.05l.93,0v23a1.13,1.13,0,0,1-1.59-.38,59.68,59.68,0,0,1,0-22Z"/><path class="cls-4" d="M203.06,225.09q-86.09,0-172.18-.11c-2,0-4.35.89-6.12-1l.73-.66a5.68,5.68,0,0,1,1.87-.59c25.77-.31,51.55-.1,77.33-.12q47.15,0,94.29,0a14.67,14.67,0,0,1,1.84.14,4.4,4.4,0,0,1,1.66.69A1.55,1.55,0,0,1,203,225Z"/><path class="cls-4" d="M2.17,25.06a2.13,2.13,0,0,0,.93-.3l.66.74a5.71,5.71,0,0,1,.59,1.88c.31,37.79.09,75.58.12,113.38,0,19.64.19,39.29-.11,58.94a5.54,5.54,0,0,1-.59,1.88l-.68.73c-1.51-1.08-1-2.7-1-4.13q0-85.81,0-171.61C2.05,26.05,2.13,25.55,2.17,25.06Z"/><path class="cls-5" d="M24.32,223.94c-6.85,2.61-13.91.8-20.88.94a1.82,1.82,0,0,1-1.26-1.26c.13-7-1.67-14,.94-20.88l.6.61c1.78,4.45.9,9.11.88,13.66,0,4.08,1.57,5.52,5.56,5.44,4.25-.1,8.55-.52,12.78.48A3.36,3.36,0,0,1,24.32,223.94Z"/><path class="cls-6" d="M24.76,224l-.44,0-.27-.12-.27.1c-2.44-6.54-2.11-13.09-.15-19.66a1.25,1.25,0,0,1,1.73-.09A29,29,0,0,1,25.2,224l-.2-.21Z"/><path class="cls-6" d="M3.11,202.73l0-.44.15-.24-.21-.2c6.54-2.54,13.12-2.19,19.72-.27a1.25,1.25,0,0,1,.16,1.73,29.22,29.22,0,0,1-19.79,0A.4.4,0,0,0,3.11,202.73Z"/><path class="cls-7" d="M25.19,3.19c1.55-.84,3.24-.59,4.89-.59q83.77,0,167.55,0c1.47,0,2.95.27,4.42.41a94.69,94.69,0,0,1,.07,20,.91.91,0,0,0-.4.83c-1.73,2.2-4.22,1.61-6.46,1.62-16.9.06-33.81,0-50.71,0h-3.88q-27.57,0-55.13,0h-2.9c-16.43,0-32.86,0-49.28,0-2.31,0-4.65.23-6.92-.51a4.44,4.44,0,0,1-2.16-2c-.65-6.67-2.08-13.38.89-19.89Z"/><path class="cls-8" d="M204.29,23.84,204,2.94a2.89,2.89,0,0,1,2.6-.12A79.11,79.11,0,0,0,218.54,3c4-.19,5.77,1.15,5.55,5.38a135.24,135.24,0,0,0,0,13.93,1.24,1.24,0,0,1-.44,1.56l.26,0A26.11,26.11,0,0,1,204.29,23.84Z"/><path class="cls-4" d="M224.85,25.07c.06,8.66.16,17.33.17,26q.06,75.5.08,151l-.08,0a1.65,1.65,0,0,1-1.65-.72,5.19,5.19,0,0,1-.65-1.81c-.35-15-.15-29.93-.14-44.89,0-42.4-.19-84.8.11-127.2a5.57,5.57,0,0,1,.58-1.88l.67-.73A1.79,1.79,0,0,0,224.85,25.07Z"/><path d="M144,24l57.7-.18,1.3.29a1.7,1.7,0,0,1-.77,1.59,7,7,0,0,1-1.75.72c-17.4.72-34.8.27-52.2.24a6.94,6.94,0,0,1-3.8-1A1.24,1.24,0,0,1,144,24Z"/><path class="cls-9" d="M206,3l-2-.06c6.29-2.14,12.75-.55,19.12-.87A1.79,1.79,0,0,1,225,4c-.09,6.44.72,12.9-.47,19.31,0,.21-.53.33-.82.49a2.52,2.52,0,0,0,.12-.89,100.6,100.6,0,0,1-.19-15.4c.12-3.41-1.12-4.16-4.28-4.12C214.91,3.48,210.42,4.09,206,3Z"/><path class="cls-6" d="M203,25q0-.42.06-.83l1.27-.28,19.66,0q0,.46,0,.92l-.14.24.2.19c-6.1,2.81-12.47,1.22-18.75,1.13a4.92,4.92,0,0,1-1.7-.69Z"/><path class="cls-10" d="M202.12,23l-.07-20A45.7,45.7,0,0,1,202.12,23Z"/><path class="cls-11" d="M3.1,24.13C.71,20.1,2.44,15.7,2,11.5,1.76,8.69,1.94,5.85,1.92,3a46.87,46.87,0,0,1,22.22.07l-.62.61c-4.44,1.8-9.1.88-13.66.91-3.79,0-5.21,1.44-5.24,5.23,0,4.55.9,9.21-.9,13.66Z"/><path class="cls-10" d="M25.16,3.09,25.11,23a1.21,1.21,0,0,1-1.65-.39c-1.67-6.51-2.15-13,.32-19.44l.36-.07Z"/><path class="cls-10" d="M3.1,24.76a2.44,2.44,0,0,1,0-.63l.07-.36c6.23-2.47,12.58-1.62,18.93-.65a2.36,2.36,0,0,1,1.18,1.38,2.2,2.2,0,0,1-1.13,1.41c-6.42,1-12.83,2-19.12-.71l.2-.19Z"/><path class="cls-12" d="M223.9,201.87,225,202q.06,11.51.12,23H203l.07-1.11.61-.58c4.47-1.74,9.14-.8,13.72-.88,3.55-.07,5.07-1.35,5-5a101.77,101.77,0,0,1,.22-13.35,5.28,5.28,0,0,1,.64-1.62Z"/><path class="cls-13" d="M25.2,224,25,204a2.81,2.81,0,0,1,1.84-.52c56.93.14,113.86,0,170.8,0a26.81,26.81,0,0,0,3-.16,2.87,2.87,0,0,1,1.78.75c1.44,6.66,2.17,13.31-.44,19.88l-1-.19a10.22,10.22,0,0,0-4-.31H30a10.25,10.25,0,0,0-4,.31A3.37,3.37,0,0,1,25.2,224Z"/><path class="cls-14" d="M26.09,223.83c1.6-1.35,3.51-.79,5.28-.79q82.15,0,164.3,0c1.77,0,3.69-.56,5.28.79-6.66.06-13.32.18-20,.18q-74.45,0-148.91,0C30.08,224,28.08,223.9,26.09,223.83Z"/><path class="cls-6" d="M202,224l-.13-19.92a1,1,0,0,1,.56-1.35,1.68,1.68,0,0,1,1.4.87,5.86,5.86,0,0,1,.61,1.67c-.16,6.26,1.82,12.68-1.38,18.71l0-.1Z"/><path class="cls-13" d="M3,25.19l20,0a2.91,2.91,0,0,1,.47,1.85q0,86.56,0,173.11A2.76,2.76,0,0,1,23,202l-20-.16a3.42,3.42,0,0,1,.17-.9,10.22,10.22,0,0,0,.31-4q0-83.48,0-167a10.25,10.25,0,0,0-.31-4A3.3,3.3,0,0,1,3,25.19Z"/><path class="cls-14" d="M3.21,26.08c1.35,1.6.79,3.51.79,5.28q0,82.15,0,164.3c0,1.77.56,3.69-.79,5.28C3.15,194.29,3,187.63,3,181Q3,106.52,3,32.07C3,30.07,3.15,28.08,3.21,26.08Z"/><path class="cls-15" d="M3.13,203.27l20.12-.15.34-.32L24,203l.22.41-.28.37-.17,20.13c-6,.12-11.9.18-17.85.38-2.35.08-3.25-.83-3.17-3.17C2.94,215.18,3,209.23,3.13,203.27Z"/><path class="cls-16" d="M23.94,203.79l-.06-.33.48-.84a4.17,4.17,0,0,1,1.72-.84c18.83-.49,37.66-.08,56.49-.23h2.89q27.55,0,55.1,0h3.89c17,0,33.92,0,50.88,0,2.26,0,4.73-.54,6.57,1.48l0,1a3.86,3.86,0,0,0-.92.1,10.71,10.71,0,0,1-4,.3H30.07a10.71,10.71,0,0,1-4-.3L25,204Z"/><path class="cls-17" d="M23.89,203.46a1.13,1.13,0,0,1-.64-.34L23,202l-.19-1.07a10.92,10.92,0,0,1-.29-4q0-83.46,0-166.91a10.92,10.92,0,0,1,.29-4q.12-.44.2-.9L22.82,25l.13-.25a1.53,1.53,0,0,1,1.69.66c1.19,2.16.81,4.53.82,6.82,0,17.4,0,34.8,0,52.2,0,.65,0,1.29,0,1.94q0,27.07,0,54.14c0,.65,0,1.3,0,2,0,17.8,0,35.6,0,53.41,0,2.45.47,5-1.44,7.14Z"/><path class="cls-18" d="M144,24l.05,1.15c1.71,1.68,1.71,3.88,1.72,6q.1,23.06,0,46.11a9.58,9.58,0,0,1-1.12,5.26,1.48,1.48,0,0,1-1.63.66c-2-1.86-1.43-4.32-1.44-6.58-.07-15.47,0-30.93-.06-46.36-.28-1.05-1.07-.73-1.79-.6a2.4,2.4,0,0,1-1.76-.42c-.77-2.15.85-3.16,2.09-4.35.33-.28.65-.58.95-.89Z"/><path d="M26.21,23.92,83,24a1.22,1.22,0,0,1-.45,1.65,8.58,8.58,0,0,1-4.81,1.09c-16.16.07-32.33.13-48.49,0a10,10,0,0,1-2.47-.36,4.21,4.21,0,0,1-1.6-.92C24.59,24.28,24.82,23.72,26.21,23.92Z"/><path d="M141,24,141,25.18a13.06,13.06,0,0,1-5.68,1.6c-14.9.06-29.8.08-44.7,0a17.26,17.26,0,0,1-3.92-.63c-.94-.41-1.8-.87-1.65-2.12Z"/><path class="cls-19" d="M85,24l1.19,1.11c1.28.86,2.83,1.53,2.3,3.55a1.44,1.44,0,0,1-1,.76A4.08,4.08,0,0,1,84.94,28c-.44-.35-.89-.71-1.35-1a3.58,3.58,0,0,1-.81-.78.85.85,0,0,1,.19-1L83,24Z"/><path class="cls-20" d="M26.21,23.92,25,25a.71.71,0,0,1-1.13,0,1.72,1.72,0,0,1-.95-.27q0-.48,0-1a.88.88,0,0,1,.88-.87l1.26,0Z"/><path class="cls-21" d="M206,3c5.12-.07,10.23-.09,15.35-.23,2.12-.06,3,.75,2.9,2.89-.28,5.75.5,11.54-.45,17.27-1.72-4.34-.86-8.88-.65-13.26.23-4.79-1.55-5.92-6-5.78C213.49,4,209.57,5.15,206,3Z"/><path class="cls-13" d="M204.12,25.2H224a5.24,5.24,0,0,1-.19.89,10.8,10.8,0,0,0-.3,4q0,83.47,0,166.94a10.25,10.25,0,0,0,.31,4,1.74,1.74,0,0,1,.06.91l.16.26c-6.56,2.33-13.17,1.74-19.8.38a2.57,2.57,0,0,1-.87-1.7c.34-5.15.16-10.32.16-15.48q0-79.15,0-158.31A2.8,2.8,0,0,1,204.12,25.2Z"/><path class="cls-14" d="M223.84,201c-1.35-1.6-.79-3.51-.79-5.28q0-82.14,0-164.29c0-1.77-.55-3.69.77-5.29.07,2,.19,4,.19,6q0,81.45,0,162.89C224,197,223.9,199,223.84,201Z"/><path class="cls-13" d="M144.15,83q0-28.91-.08-57.82l57.8-.08c1.46,1.4,1.59,3.22,1.59,5.07q0,24.2,0,48.39a7.78,7.78,0,0,1-.88,4.34A4.17,4.17,0,0,1,200,84.29c-17.09.4-34.18.11-51.26.14C147.06,84.44,145.35,84.45,144.15,83Z"/><path class="cls-22" d="M202,82.88l-.09-57.8L203,25l.16.17a7.55,7.55,0,0,1,.86,3.33c-.06,18.53.3,37.06-.19,55.58a1.82,1.82,0,0,1-1.32,1.22C201.4,84.66,201.43,83.82,202,82.88Z"/><path class="cls-17" d="M202.85,85l.28-59.9,1,.08a4.57,4.57,0,0,0,.11.91,11.71,11.71,0,0,1,.28,4q0,83.45,0,166.9a10.92,10.92,0,0,1-.29,4,3.38,3.38,0,0,0-.11.92l-.86.43a3.15,3.15,0,0,1-1.23-1.45c-1-6.79-.35-13.62-.42-20.43-.11-12.65,0-25.3,0-38,0-.65,0-1.29,0-1.94,0-16.27,0-32.54,0-48.81C201.59,89.42,201.18,87,202.85,85Z"/><path class="cls-23" d="M23.85,23l-.88.87L3.17,23.76C2.33,17.85,3,11.9,2.78,6c-.09-2.32.9-3.3,3.21-3.2,5.93.23,11.87-.45,17.79.39Q23.81,13.06,23.85,23Z"/><path class="cls-24" d="M203.05,224l.05-19.78c.32-.81.81-1.57,1.73-1.56,6.39.08,12.81-.86,19.16.51.94,6.13.17,12.29.45,18.43.1,2.22-.87,2.92-3,2.83C215.35,224.17,209.18,224.9,203.05,224Z"/><path class="cls-6" d="M224,203.18c-5.41,0-10.82.06-16.22.14-1.59,0-3.32-.44-4.66.91l-.19-1.21a.75.75,0,0,1,.19-1.09l1-.07,20,.28Z"/><path class="cls-14" d="M26.11,204.2c7.82-.06,15.65-.17,23.47-.17q72.69,0,145.37,0c2,0,4,.11,6,.17-1.59,1.36-3.51.79-5.28.79q-82.13,0-164.27,0C29.62,205,27.71,205.56,26.11,204.2Z"/><path d="M203.11,201.93l-.19,1.09-1,.05L144,202.86a1.37,1.37,0,0,1,.71-1.62,10.64,10.64,0,0,1,5.35-1q23.49-.08,47,0a11.5,11.5,0,0,1,4.42.64,10,10,0,0,1,1.65,1Z"/><path class="cls-14" d="M22.84,26.1c.06,5.66.18,11.32.18,17Q23,119,23,195c0,2-.12,4-.18,6-1.35-1.6-.79-3.51-.79-5.28q0-82.14,0-164.27C22.05,29.61,21.49,27.7,22.84,26.1Z"/><path class="cls-18" d="M144.07,201.88q0,.49,0,1h-3q-.49-.42-1-.81c-1.19-1.19-2.86-2.16-2-4.3a2.44,2.44,0,0,1,1.8-.34c.66.09,1.46.65,1.74-.57,0-15.41,0-30.77,0-46.14,0-2.26-.47-4.67,1.22-6.66a1.29,1.29,0,0,1,1.7.31c1.51,2.22,1.28,4.76,1.29,7.22q.06,21.39,0,42.78C145.8,197,146.15,199.72,144.07,201.88Z"/><path class="cls-22" d="M24,203l.17-60.94c1.75.07,1.86,1.48,2.22,2.69.47,18.84,1,37.68-.27,56.51A5.35,5.35,0,0,1,25,202.87Z"/><path d="M25,202.87l.06-1c1.6-1.46,3.6-1.59,5.6-1.59q23.38-.11,46.76,0a9.67,9.67,0,0,1,4.83.95,1.42,1.42,0,0,1,.73,1.64Z"/><path d="M141,201.87q0,.5.06,1H85.08c0-1.23.89-1.63,1.83-2,7.27-1.26,14.6-.48,21.9-.6,8.15-.14,16.3,0,24.45,0A15.07,15.07,0,0,1,141,201.87Z"/><path class="cls-19" d="M86.21,201.93l-1.13.92H83l0-1a.78.78,0,0,1-.28-.63c0-.24,0-.36.1-.36a4,4,0,0,1,.8-.78c.45-.35.91-.69,1.34-1.07a5.85,5.85,0,0,1,2.53-1.63,2.06,2.06,0,0,1,1.78.61C89.67,200.42,87.62,200.93,86.21,201.93Z"/><path class="cls-22" d="M23.9,25.05,25,25l.08.09a5.66,5.66,0,0,1,1.57,4.07c.07,17.67.56,35.35-.24,53-.35,1.24-.48,2.67-2.25,2.76Z"/><path d="M24.18,141V86a1.33,1.33,0,0,1,1.61.69,12.86,12.86,0,0,1,1,5.84q0,20.95,0,41.89a12.85,12.85,0,0,1-1,5.85A1.33,1.33,0,0,1,24.18,141Z"/><path class="cls-25" d="M25.19,86.08l-1,0V85l.9-2.08a1.65,1.65,0,0,1,1.73-.26,1.33,1.33,0,0,1,.56,1c-.56.57-.62,1,.32,1.18a4.76,4.76,0,0,1,1.94,2.52,2.13,2.13,0,0,1-.54,1.88C26.59,89.68,26.07,87.65,25.19,86.08Z"/><path class="cls-26" d="M24.18,141l1,0c.73-1.44,1.43-2.94,3.52-2.39a1.46,1.46,0,0,1,.73,1,3.72,3.72,0,0,1-1.69,2.61c-.9.19-.89.64-.35,1.24a1.33,1.33,0,0,1-.58,1,1.65,1.65,0,0,1-1.71-.28l-.9-2.07Z"/><path class="cls-27" d="M87,29l1.09-.08c1.38-.34,2.14.58,2.93,1.43a34,34,0,0,0,6.63,6.59,11.5,11.5,0,0,1,2.4,2.4,32.37,32.37,0,0,0,6.59,6.6A11.38,11.38,0,0,1,109,48.31c1.36,1.58,2.33,3.62,4.75,3.89,1.93-.71,3-2.32,4.17-3.86a10,10,0,0,1,1.82-2,30.72,30.72,0,0,0,7.14-7,10.1,10.1,0,0,1,1.82-2,32.92,32.92,0,0,0,7.17-6.91,3.12,3.12,0,0,1,2.26-1.41l1.82-.12c1.7.64,2,2.07,2,3.64,0,16.28.13,32.56-.05,48.83a3.37,3.37,0,0,1-.66,1.85c-1.53,1.33-3.41,1.19-5.22,1.19q-22.44.07-44.89,0c-1.81,0-3.69.13-5.28-1.05-1.24-1.33-1.28-3-1.28-4.67q-.09-22.12,0-44.25C84.62,32.35,84.51,30.06,87,29Z"/><path class="cls-28" d="M129.16,38.1l-1.23,1.83c-2.79,2.18-5,5-7.77,7.17l-1.23,1.83c-1.8,1.31-3.17,3.12-5,4.39-2.63-.54-3.7-3.14-5.79-4.4a3.42,3.42,0,0,0-2-2,51.22,51.22,0,0,0-7-7,3.41,3.41,0,0,0-2-2,51.22,51.22,0,0,0-7-7,3.43,3.43,0,0,0-2-2c.38-1.79-1.63-2.36-1.92-3.81l54.76.07c-.49,1.61-2.62,2-2.8,3.88l-1.24,1.87C134.14,33.1,131.91,35.89,129.16,38.1Z"/><path class="cls-29" d="M142,27c2,.93.94,2.7,1,4,.15,17.31.2,34.62.27,51.93a1.14,1.14,0,0,1-.87,1.23,1.31,1.31,0,0,1-.85-1.33c0-.6,0-1.2,0-1.8-.13-17.24.27-34.48-.22-51.71A4.29,4.29,0,0,1,142,27Z"/><path class="cls-30" d="M142,27,142,83a.55.55,0,0,1-.93,0q0-23.9,0-47.79c0-2.16.15-4.33-1-6.28A3.28,3.28,0,0,1,142,27Z"/><path class="cls-31" d="M143.12,83.9a6.47,6.47,0,0,1,.13-.92h.9l55.87.2a1.31,1.31,0,0,1-.7,1.6,8.09,8.09,0,0,1-3.89.67q-23.67.06-47.33,0a7.79,7.79,0,0,1-4.34-.83Z"/><path class="cls-13" d="M27,83.18l-1.94-.3q0-28.89,0-57.77L83,25.19a1.12,1.12,0,0,0,.2.84c1.37,1.87,1.31,4,1.31,6.21q0,22.63,0,45.25c0,2,.22,4-1.11,5.74-1.68,1.43-3.74,1.22-5.71,1.23q-22.46.06-44.91,0C30.74,84.46,28.69,84.64,27,83.18Z"/><path class="cls-32" d="M84.21,26.07l.82,1c1.43,2.18.43,4.56.44,6.81.1,16,.05,31.92.05,47.88a9.37,9.37,0,0,1-.14,1.91l-.78.55-.85-.44a6.06,6.06,0,0,1-.21-1.9q0-25.55,0-51.1C83.57,29.24,82.95,27.51,84.21,26.07Z"/><path class="cls-30" d="M85.1,83q0-28-.07-55.91A3.21,3.21,0,0,1,87,29c-1.2,2-1,4.13-1,6.28Q86,59.14,86,83A.55.55,0,0,1,85.1,83Z"/><path class="cls-33" d="M84.21,26.07Q84.12,51.53,84,77c0,2-.14,4-.21,6a.55.55,0,0,1-.91,0L83.17,26Z"/><path class="cls-14" d="M204.22,200.94c-.06-5.66-.18-11.32-.18-17q0-75.94,0-151.87c0-2,.13-4,.2-6,1.32,1.61.77,3.52.77,5.29q0,82.13,0,164.25C205,197.43,205.57,199.34,204.22,200.94Z"/><path class="cls-25" d="M200,83.91q0-.37,0-.73l1.94-.3L202.1,85a1,1,0,0,1,.3.81c0,.29-.08.44-.15.44-.88,1.73-2,3.18-4.22,3a2.06,2.06,0,0,1-.64-1.79,3.66,3.66,0,0,1,1.82-2.39C199.72,84.85,200.25,84.64,200,83.91Z"/><path d="M201.94,86.2,202.1,85h.75q0,28,0,56a1.36,1.36,0,0,1-1.62-.71,12,12,0,0,1-1-5.31c-.05-14,0-28.1,0-42.15A12,12,0,0,1,201.94,86.2Z"/><path class="cls-22" d="M203.14,202h-1.27a5.92,5.92,0,0,1-1.51-4.1c0-17.68-.55-35.37.26-53,.36-1.23.44-2.69,2.24-2.73Z"/><path class="cls-25" d="M202.86,142.08l-.9,2.08a1.65,1.65,0,0,1-1.7.29,1.3,1.3,0,0,1-.59-1c.49-.57.59-1-.33-1.26a3.9,3.9,0,0,1-1.72-2.57,1.48,1.48,0,0,1,.7-1.07c2.11-.58,2.81.92,3.55,2.38l1,0Z"/><path class="cls-13" d="M200,143.86l1.94.3-.09,57.8-57.8-.08q0-28.91.08-57.82c1.35-1.61,3.25-1.46,5-1.47q22.83-.08,45.66,0C196.67,142.58,198.53,142.53,200,143.86Z"/><path class="cls-27" d="M88.9,197.94,87,198c-2.07-.81-2.38-2.62-2.39-4.48-.13-15.36-.11-30.72,0-46.08a5.55,5.55,0,0,1,1.11-3.72c1.54-1.28,3.42-1.17,5.23-1.17q22.45-.07,44.9,0c1.81,0,3.69-.15,5.27,1.07,1.17,1.44.86,3.17.86,4.8q0,22,0,44c0,2.06.65,4.48-2,5.66l-1.82-.12a2.45,2.45,0,0,1-1.82-.83,32.32,32.32,0,0,0-7.59-7.43,8,8,0,0,1-1.44-1.44,28.74,28.74,0,0,0-7.52-7.53,7.88,7.88,0,0,1-1.45-1.45c-1.3-1.77-2.42-3.73-4.71-4.45-2.52.51-3.54,2.67-4.91,4.43a8,8,0,0,1-1.45,1.45,28.75,28.75,0,0,0-7.54,7.54,8,8,0,0,1-1.44,1.44,31.88,31.88,0,0,0-7.57,7.42A2.36,2.36,0,0,1,88.9,197.94Z"/><path class="cls-7" d="M119.1,178.89l1.05,1.05a71.54,71.54,0,0,1,7.95,7.95l1.05,1.05a71.55,71.55,0,0,1,7.95,7.95l1.07,1.1c.17,1.84,2.32,2.26,2.8,3.88l-54.76.06c.27-1.75,2.66-2.08,2.7-4l1-1a74.34,74.34,0,0,1,8-8l1-1a74.34,74.34,0,0,1,8-8l1-1c1.9-1.83,3.14-4.41,6-5.18A30.72,30.72,0,0,1,119.1,178.89Z"/><path class="cls-30" d="M140,198.11c1.19-2,1-4.13,1-6.28q0-23.9,0-47.79a.94.94,0,0,1,1.43.7c.14,17.46,0,34.93.05,52.39A4.38,4.38,0,0,1,142,200,3.28,3.28,0,0,1,140,198.11Z"/><path class="cls-29" d="M142,200,142,144a.74.74,0,0,1-.28-.68q.06-.38.16-.38a1.2,1.2,0,0,1,1.15,0,1,1,0,0,1,.26,1.1q-.11,25.71-.23,51.43c0,1.48-.13,3-.22,4.44,0,.09-.21.24-.32.25A1.31,1.31,0,0,1,142,200Z"/><path class="cls-31" d="M143.25,144.06a6.78,6.78,0,0,1-.13-.92l.66-.73c1.83-1.08,3.86-.83,5.83-.84q21.91,0,43.83,0c2.29,0,4.71-.34,6.58,1.55q0,.37,0,.73l-55.88.2h-.9Z"/><path class="cls-13" d="M25.09,144.16l1.94-.3c1.5-1.34,3.36-1.28,5.18-1.28q22.89,0,45.78,0c1.81,0,3.68-.12,5.25,1.11,1.2,1.36,1.21,3.05,1.22,4.71.06,15.79,0,31.59,0,47.38a8.43,8.43,0,0,1-1.3,5.22,1.14,1.14,0,0,0-.19.85H25.09Z"/><path class="cls-32" d="M85,199.94l-.81,1c-1.29-1.44-.64-3.19-.65-4.78-.05-16.81,0-33.62,0-50.43q0-.94,0-1.88l.33-.88a1.11,1.11,0,0,1,1.57.49,16.87,16.87,0,0,1,.07,1.89c.13,17.41-.26,34.82.21,52.23A4.14,4.14,0,0,1,85,199.94Z"/><path class="cls-30" d="M85,199.94,85.1,144a.55.55,0,0,1,.93,0q0,23.87,0,47.73c0,2.15-.18,4.33,1,6.28A3.21,3.21,0,0,1,85,199.94Z"/><path class="cls-33" d="M83.81,144.07q.11,25.21.22,50.42c0,2.16.12,4.32.18,6.48l-1.05,0-.27-56.94A.55.55,0,0,1,83.81,144.07Z"/><path class="cls-13" d="M28.92,138.92c-1.79-.32-2.42,1.49-3.74,2q0-27.44,0-54.88c1.61.52,2,2.73,3.93,2.82a2,2,0,0,1,1.86.62A74.42,74.42,0,0,0,38.63,97a10.07,10.07,0,0,1,1.43,1.43,54.49,54.49,0,0,0,7.5,7.52A10,10,0,0,1,49,107.36c1.32,2,3.6,3.34,4.46,5.73-.13,3.06-3.1,4.26-4.34,6.6a10,10,0,0,1-1.83,2,30.73,30.73,0,0,0-7.14,7,10.08,10.08,0,0,1-1.82,2,33.32,33.32,0,0,0-7.15,6.86A3.11,3.11,0,0,1,28.92,138.92Z"/><path class="cls-27" d="M39.15,98.93l-1-1a66.38,66.38,0,0,0-8-8l-1-1L29,87c.82-2.1,2.65-2.38,4.53-2.39q23-.19,46,0a5.58,5.58,0,0,1,3.76,1.12c1.28,1.54,1.17,3.42,1.17,5.23q.07,22.45,0,44.91c0,1.82.13,3.69-1.05,5.28-1.49,1.37-3.36,1.28-5.17,1.29q-21.63.07-43.26,0c-2.26,0-4.78.31-6-2.44l-.06-1.08,1.23-1.81c2.77-2.2,5-5,7.78-7.19l1.22-1.81c2.77-2.2,5-5,7.78-7.19l1.22-1.81c1.87-1.86,4.39-3.15,5.26-5.91a29,29,0,0,0-5.26-5.26l-1-1A66.38,66.38,0,0,0,39.15,98.93Z"/><path class="cls-30" d="M83,86H35.29C33.13,86,31,85.83,29,87l-1.91-2a5.12,5.12,0,0,1,3.74-1c16.56,0,33.11-.06,49.67,0a5.89,5.89,0,0,1,1.94.36A1.12,1.12,0,0,1,83,86Z"/><path class="cls-34" d="M83,85.09,27.09,85c-.83-.33-.61-.71-.06-1.11,7.94-.89,15.91-.33,23.86-.34,11,0,21.91-.39,32.86.22l.35.28a.89.89,0,0,1,0,1.13A.85.85,0,0,1,83,85.09Z"/><path class="cls-31" d="M83.75,83.8,27,83.92q0-.37,0-.74L82.9,83q.46,0,.91,0A1.36,1.36,0,0,1,83.75,83.8Z"/><path class="cls-30" d="M29,140c2,1.2,4.13,1,6.28,1H83a1.12,1.12,0,0,1-.57,1.6c-10.73.91-21.49.2-32.24.38-6,.1-11.92,0-17.88,0-1.79,0-3.68.35-5.23-1A3.33,3.33,0,0,1,29,140Z"/><path class="cls-34" d="M27.1,142,83,142a.85.85,0,0,1,1.11-.12.9.9,0,0,1,0,1.13l-.35.28c-18.91.35-37.81.62-56.71-.13C26.47,142.71,26.28,142.33,27.1,142Z"/><path class="cls-31" d="M27,143.11l56.71.13a1.35,1.35,0,0,1,.06.83H82.9L27,143.86Q27,143.49,27,143.11Z"/><path class="cls-35" d="M85.1,83H142a4.76,4.76,0,0,1,.25.95c-1.77,2-4.19,1.84-6.48,1.85q-22.18.12-44.36,0c-2.29,0-4.72.13-6.49-1.84A5.24,5.24,0,0,1,85.1,83Z"/><path class="cls-36" d="M120.16,47.1c2-3,4.1-6,7.77-7.17C125.92,42.94,123.81,45.86,120.16,47.1Z"/><path class="cls-36" d="M129.16,38.1c2-3,4.1-6,7.77-7.17C134.92,33.94,132.81,36.86,129.16,38.1Z"/><path class="cls-37" d="M99.12,39.92a11.33,11.33,0,0,1,7,7A18.17,18.17,0,0,1,99.12,39.92Z"/><path class="cls-37" d="M90.12,30.92a11.33,11.33,0,0,1,7,7A18.17,18.17,0,0,1,90.12,30.92Z"/><path class="cls-38" d="M108.13,48.92c2.87-.1,3.41,3.28,5.82,3.87q.46.34.34.72t-.26.39C110.82,53.71,109.51,51.26,108.13,48.92Z"/><path class="cls-39" d="M114,53.9l-.08-1.11c1.48-1.52,2.39-3.78,5-3.87A10.3,10.3,0,0,1,114,53.9Z"/><path class="cls-27" d="M84.87,84H142.2a5.39,5.39,0,0,0,.92-.06l0,0a8.4,8.4,0,0,1,1,1.68q.88,27.91,0,55.83a8.22,8.22,0,0,1-1,1.68l0,0a5.06,5.06,0,0,0-.91-.07c-4.74,1-9.53.36-14.3.4-12.72.11-25.45.05-38.17,0-1.62,0-3.31.39-4.87-.42a3,3,0,0,1-.76-.11,2.07,2.07,0,0,1-.14-.72c-.95-6.91-.42-13.85-.37-20.78C83.67,109.24,83,97,84,84.8a2,2,0,0,1,.14-.72A3.41,3.41,0,0,1,84.87,84Z"/><path class="cls-34" d="M143.09,84.8a4.47,4.47,0,0,1,.07-.88H200c.51.4.8.79-.06,1.11a9.65,9.65,0,0,1-5.2,1.42c-16.06,0-32.12.11-48.19,0a6.24,6.24,0,0,1-1.94-.39A5.65,5.65,0,0,1,143.09,84.8Z"/><path class="cls-27" d="M198.13,138.92,198,140c-.65,1.7-2.08,2-3.64,2-16.22,0-32.45.13-48.67-.06a3,3,0,0,1-1.81-.73c-.88-8.1-.34-16.22-.35-24.33,0-10.27-.41-20.56.24-30.83,2.91-1,5.92-.46,8.88-.48q20-.11,39.94,0c1.87,0,4.1-.82,5.4,1.47l-.11,1.87a2.4,2.4,0,0,1-.82,1.82,32.44,32.44,0,0,0-7.41,7.57,7.94,7.94,0,0,1-1.44,1.44,28.69,28.69,0,0,0-7.52,7.51,7.8,7.8,0,0,1-1.4,1.42c-1.64,1.24-3.54,2.22-4.29,4.33a5.77,5.77,0,0,0,.06,1.2c.67,1.78,2.19,2.73,3.59,3.8a11.48,11.48,0,0,1,2.38,2.39,32.4,32.4,0,0,0,6.6,6.58,11.52,11.52,0,0,1,2.4,2.4,33.64,33.64,0,0,0,6.6,6.62C197.57,136.77,198.47,137.54,198.13,138.92Z"/><path class="cls-13" d="M178.9,107.93l1-1a74.35,74.35,0,0,1,8-8l1-1a74.35,74.35,0,0,1,8-8l1-1c1.93,0,2.24-2.43,4-2.7q0,27.38-.08,54.77c-1.32-.55-2-2.36-3.74-2a3.42,3.42,0,0,0-2-2,51.36,51.36,0,0,0-7-7,3.4,3.4,0,0,0-2-2,51.36,51.36,0,0,0-7-7,3.4,3.4,0,0,0-2-2c-1.17-1.88-3.4-2.94-4.07-5.22v-.37C174.86,110.81,177.23,109.68,178.9,107.93Z"/><path class="cls-30" d="M198,87c-2-1.2-4.13-1-6.28-1H144q-.46-.31-.31-.62t.31-.31L200,85A3.36,3.36,0,0,1,198,87Z"/><path class="cls-30" d="M144,141h47.73c2.15,0,4.33.19,6.28-1a3.37,3.37,0,0,1,1.91,2c-2.06,1-4.26.47-6.38.47-16.3,0-32.59.12-48.89,0A.91.91,0,0,1,144,141Z"/><path class="cls-34" d="M144,142,200,142c.86.33.58.71.06,1.12H143.16a4.61,4.61,0,0,1-.07-.88Q143.29,141.21,144,142Z"/><path class="cls-35" d="M84.87,143.07h57.34q-.11.48-.25,1H85.1Q85,143.55,84.87,143.07Z"/><path class="cls-36" d="M128.1,187.89a23.53,23.53,0,0,1-7.95-7.95A14,14,0,0,1,128.1,187.89Z"/><path class="cls-40" d="M97.9,188.93a23.53,23.53,0,0,1-8,8A13.94,13.94,0,0,1,97.9,188.93Z"/><path class="cls-36" d="M137.1,196.89a23.53,23.53,0,0,1-7.95-7.95A14,14,0,0,1,137.1,196.89Z"/><path class="cls-40" d="M106.9,179.93a23.53,23.53,0,0,1-8,8A13.94,13.94,0,0,1,106.9,179.93Z"/><path class="cls-41" d="M113.94,174.25c-2.54.86-3.32,4-6,4.65,1-3,2.72-5.24,6.08-5.75q.41.4.24.76T113.94,174.25Z"/><path class="cls-39" d="M113.94,174.25l.08-1.11c2.32,1.37,4.51,2.84,5.08,5.75C116.7,178.1,115.55,175.92,113.94,174.25Z"/><path class="cls-37" d="M30.15,89.93a13.91,13.91,0,0,1,8,8A23.57,23.57,0,0,1,30.15,89.93Z"/><path class="cls-37" d="M39.15,98.93a13.91,13.91,0,0,1,8,8A23.57,23.57,0,0,1,39.15,98.93Z"/><path class="cls-40" d="M37.93,129.92c-2,3-4.11,5.95-7.78,7.19C32.14,134.05,34.27,131.16,37.93,129.92Z"/><path class="cls-40" d="M46.93,120.92c-2,3-4.11,5.95-7.78,7.19C41.14,125.05,43.27,122.16,46.93,120.92Z"/><path class="cls-41" d="M53.9,113c-.5,3.37-2.73,5.09-5.75,6.08.68-2.68,3.79-3.48,4.67-6A.64.64,0,0,1,53.9,113Z"/><path class="cls-41" d="M53.9,113l-1.08.07c-1.68-1.6-3.88-2.75-4.67-5.16C51.08,108.49,52.53,110.72,53.9,113Z"/><path class="cls-35" d="M84,84.8q0,28.72,0,57.44-.48-.12-.94-.28,0-.47,0-.93,0-27.5,0-55,0-.47,0-.93Q83.48,84.93,84,84.8Z"/><path class="cls-35" d="M144,142q-.47.16-.94.28,0-28.72,0-57.44.48.12.94.28,0,.47,0,.93,0,27.5,0,55Q144,141.49,144,142Z"/><path class="cls-40" d="M196.9,89.93a23.51,23.51,0,0,1-8,8A13.94,13.94,0,0,1,196.9,89.93Z"/><path class="cls-40" d="M187.9,98.93a23.51,23.51,0,0,1-8,8A13.94,13.94,0,0,1,187.9,98.93Z"/><path class="cls-37" d="M189.12,129.92a11.34,11.34,0,0,1,7,7A18.15,18.15,0,0,1,189.12,129.92Z"/><path class="cls-37" d="M180.12,120.92a11.34,11.34,0,0,1,7,7A18.15,18.15,0,0,1,180.12,120.92Z"/><path class="cls-41" d="M178.9,107.93c-.88,2.46-3.11,3.7-4.84,5.4C173.74,109.81,176.45,109,178.9,107.93Z"/><path class="cls-41" d="M174.06,113.7c1.52,1.61,3.94,2.53,4.07,5.22C176.24,117.59,173.49,116.94,174.06,113.7Z"/></svg>